<mxfile host="Electron" agent="Mozilla/5.0 (Windows NT 10.0; Win64; x64) AppleWebKit/537.36 (KHTML, like Gecko) draw.io/24.7.17 Chrome/128.0.6613.36 Electron/32.0.1 Safari/537.36" version="24.7.17">
  <diagram name="Page-1" id="p8J13Eus_eL60CYvkrqD">
    <mxGraphModel dx="1851" dy="1376" grid="1" gridSize="10" guides="1" tooltips="1" connect="1" arrows="1" fold="1" page="1" pageScale="1" pageWidth="1000" pageHeight="1000" math="0" shadow="0">
      <root>
        <mxCell id="0" />
        <mxCell id="1" parent="0" />
        <mxCell id="OcFp6CyiSyLSBWcYTiPV-1" value="Region" style="points=[[0,0],[0.25,0],[0.5,0],[0.75,0],[1,0],[1,0.25],[1,0.5],[1,0.75],[1,1],[0.75,1],[0.5,1],[0.25,1],[0,1],[0,0.75],[0,0.5],[0,0.25]];outlineConnect=0;gradientColor=none;html=1;whiteSpace=wrap;fontSize=12;fontStyle=0;container=1;pointerEvents=0;collapsible=0;recursiveResize=0;shape=mxgraph.aws4.group;grIcon=mxgraph.aws4.group_region;strokeColor=#00A4A6;fillColor=none;verticalAlign=top;align=left;spacingLeft=30;fontColor=#147EBA;dashed=1;" vertex="1" parent="1">
          <mxGeometry x="40" y="40" width="640" height="320" as="geometry" />
        </mxCell>
        <mxCell id="OcFp6CyiSyLSBWcYTiPV-2" value="AZ" style="rounded=1;arcSize=10;dashed=1;strokeColor=#F59D56;fillColor=none;gradientColor=none;dashPattern=8 4;strokeWidth=2;fontSize=14;fontStyle=1;horizontal=1;align=left;verticalAlign=top;spacing=7.874;fontColor=#FFB570;" vertex="1" parent="OcFp6CyiSyLSBWcYTiPV-1">
          <mxGeometry x="40" y="40" width="160" height="240" as="geometry" />
        </mxCell>
        <mxCell id="OcFp6CyiSyLSBWcYTiPV-5" value="AZ" style="rounded=1;arcSize=10;dashed=1;strokeColor=#F59D56;fillColor=none;gradientColor=none;dashPattern=8 4;strokeWidth=2;fontSize=14;fontStyle=1;horizontal=1;align=left;verticalAlign=top;spacing=7.874;fontColor=#FFB570;" vertex="1" parent="OcFp6CyiSyLSBWcYTiPV-1">
          <mxGeometry x="240" y="40" width="160" height="240" as="geometry" />
        </mxCell>
        <mxCell id="OcFp6CyiSyLSBWcYTiPV-6" value="AZ" style="rounded=1;arcSize=10;dashed=1;strokeColor=#F59D56;fillColor=none;gradientColor=none;dashPattern=8 4;strokeWidth=2;fontSize=14;fontStyle=1;horizontal=1;align=left;verticalAlign=top;spacing=7.874;fontColor=#FFB570;" vertex="1" parent="OcFp6CyiSyLSBWcYTiPV-1">
          <mxGeometry x="440" y="40" width="160" height="240" as="geometry" />
        </mxCell>
        <mxCell id="OcFp6CyiSyLSBWcYTiPV-7" value="SINGLE LOGICAL VOLUME" style="rounded=0;whiteSpace=wrap;html=1;fontStyle=1;verticalAlign=top;" vertex="1" parent="OcFp6CyiSyLSBWcYTiPV-1">
          <mxGeometry x="50" y="180" width="540" height="90" as="geometry" />
        </mxCell>
        <mxCell id="OcFp6CyiSyLSBWcYTiPV-10" value="" style="group" vertex="1" connectable="0" parent="OcFp6CyiSyLSBWcYTiPV-1">
          <mxGeometry x="100" y="70" width="40" height="90" as="geometry" />
        </mxCell>
        <mxCell id="OcFp6CyiSyLSBWcYTiPV-8" value="" style="shape=cylinder3;whiteSpace=wrap;html=1;boundedLbl=1;backgroundOutline=1;size=15;" vertex="1" parent="OcFp6CyiSyLSBWcYTiPV-10">
          <mxGeometry width="40" height="60" as="geometry" />
        </mxCell>
        <mxCell id="OcFp6CyiSyLSBWcYTiPV-9" value="Primary" style="text;html=1;align=center;verticalAlign=middle;whiteSpace=wrap;rounded=0;fontStyle=1" vertex="1" parent="OcFp6CyiSyLSBWcYTiPV-10">
          <mxGeometry y="60" width="40" height="30" as="geometry" />
        </mxCell>
        <mxCell id="OcFp6CyiSyLSBWcYTiPV-11" value="" style="group" vertex="1" connectable="0" parent="OcFp6CyiSyLSBWcYTiPV-1">
          <mxGeometry x="300" y="70" width="40" height="90" as="geometry" />
        </mxCell>
        <mxCell id="OcFp6CyiSyLSBWcYTiPV-12" value="" style="shape=cylinder3;whiteSpace=wrap;html=1;boundedLbl=1;backgroundOutline=1;size=15;" vertex="1" parent="OcFp6CyiSyLSBWcYTiPV-11">
          <mxGeometry width="40" height="60" as="geometry" />
        </mxCell>
        <mxCell id="OcFp6CyiSyLSBWcYTiPV-13" value="Replica" style="text;html=1;align=center;verticalAlign=middle;whiteSpace=wrap;rounded=0;fontStyle=1" vertex="1" parent="OcFp6CyiSyLSBWcYTiPV-11">
          <mxGeometry y="60" width="40" height="30" as="geometry" />
        </mxCell>
        <mxCell id="OcFp6CyiSyLSBWcYTiPV-21" value="" style="shape=cylinder3;whiteSpace=wrap;html=1;boundedLbl=1;backgroundOutline=1;size=15;strokeColor=#999999;" vertex="1" parent="OcFp6CyiSyLSBWcYTiPV-1">
          <mxGeometry x="80" y="210" width="40" height="50" as="geometry" />
        </mxCell>
        <mxCell id="OcFp6CyiSyLSBWcYTiPV-23" value="" style="shape=cylinder3;whiteSpace=wrap;html=1;boundedLbl=1;backgroundOutline=1;size=15;strokeColor=#999999;" vertex="1" parent="OcFp6CyiSyLSBWcYTiPV-1">
          <mxGeometry x="130" y="210" width="40" height="50" as="geometry" />
        </mxCell>
        <mxCell id="OcFp6CyiSyLSBWcYTiPV-26" value="" style="shape=cylinder3;whiteSpace=wrap;html=1;boundedLbl=1;backgroundOutline=1;size=15;strokeColor=#999999;" vertex="1" parent="OcFp6CyiSyLSBWcYTiPV-1">
          <mxGeometry x="275" y="210" width="40" height="50" as="geometry" />
        </mxCell>
        <mxCell id="OcFp6CyiSyLSBWcYTiPV-27" value="" style="shape=cylinder3;whiteSpace=wrap;html=1;boundedLbl=1;backgroundOutline=1;size=15;strokeColor=#999999;" vertex="1" parent="OcFp6CyiSyLSBWcYTiPV-1">
          <mxGeometry x="325" y="210" width="40" height="50" as="geometry" />
        </mxCell>
        <mxCell id="OcFp6CyiSyLSBWcYTiPV-28" value="" style="shape=cylinder3;whiteSpace=wrap;html=1;boundedLbl=1;backgroundOutline=1;size=15;strokeColor=#999999;" vertex="1" parent="OcFp6CyiSyLSBWcYTiPV-1">
          <mxGeometry x="475" y="210" width="40" height="50" as="geometry" />
        </mxCell>
        <mxCell id="OcFp6CyiSyLSBWcYTiPV-29" value="" style="shape=cylinder3;whiteSpace=wrap;html=1;boundedLbl=1;backgroundOutline=1;size=15;strokeColor=#999999;" vertex="1" parent="OcFp6CyiSyLSBWcYTiPV-1">
          <mxGeometry x="525" y="210" width="40" height="50" as="geometry" />
        </mxCell>
        <mxCell id="OcFp6CyiSyLSBWcYTiPV-14" value="" style="group" vertex="1" connectable="0" parent="1">
          <mxGeometry x="510" y="110" width="40" height="90" as="geometry" />
        </mxCell>
        <mxCell id="OcFp6CyiSyLSBWcYTiPV-15" value="" style="shape=cylinder3;whiteSpace=wrap;html=1;boundedLbl=1;backgroundOutline=1;size=15;" vertex="1" parent="OcFp6CyiSyLSBWcYTiPV-14">
          <mxGeometry width="40" height="60" as="geometry" />
        </mxCell>
        <mxCell id="OcFp6CyiSyLSBWcYTiPV-16" value="Replica" style="text;html=1;align=center;verticalAlign=middle;whiteSpace=wrap;rounded=0;fontStyle=1" vertex="1" parent="OcFp6CyiSyLSBWcYTiPV-14">
          <mxGeometry y="60" width="40" height="30" as="geometry" />
        </mxCell>
        <mxCell id="OcFp6CyiSyLSBWcYTiPV-17" value="" style="group" vertex="1" connectable="0" parent="1">
          <mxGeometry x="570" y="110" width="40" height="90" as="geometry" />
        </mxCell>
        <mxCell id="OcFp6CyiSyLSBWcYTiPV-18" value="" style="shape=cylinder3;whiteSpace=wrap;html=1;boundedLbl=1;backgroundOutline=1;size=15;" vertex="1" parent="OcFp6CyiSyLSBWcYTiPV-17">
          <mxGeometry width="40" height="60" as="geometry" />
        </mxCell>
        <mxCell id="OcFp6CyiSyLSBWcYTiPV-19" value="Replica" style="text;html=1;align=center;verticalAlign=middle;whiteSpace=wrap;rounded=0;fontStyle=1" vertex="1" parent="OcFp6CyiSyLSBWcYTiPV-17">
          <mxGeometry y="60" width="40" height="30" as="geometry" />
        </mxCell>
        <mxCell id="OcFp6CyiSyLSBWcYTiPV-33" value="" style="edgeStyle=orthogonalEdgeStyle;rounded=0;orthogonalLoop=1;jettySize=auto;html=1;" edge="1" parent="1" source="OcFp6CyiSyLSBWcYTiPV-32" target="OcFp6CyiSyLSBWcYTiPV-29">
          <mxGeometry relative="1" as="geometry" />
        </mxCell>
        <mxCell id="OcFp6CyiSyLSBWcYTiPV-32" value="These are all copies of the same DB" style="shape=note;strokeWidth=2;fontSize=14;size=20;whiteSpace=wrap;html=1;fillColor=#fff2cc;strokeColor=#d6b656;fontColor=#666600;" vertex="1" parent="1">
          <mxGeometry x="710" y="220" width="110.00000000000001" height="80" as="geometry" />
        </mxCell>
      </root>
    </mxGraphModel>
  </diagram>
</mxfile>
